<?xml version="1.0" encoding="UTF-8"?>
<svg id="Warstwa_2" data-name="Warstwa 2" xmlns="http://www.w3.org/2000/svg" viewBox="0 0 350.67 59.3">
  <defs>
    <style>
      .cls-1 {
        fill: #4b77bb;
      }

      .cls-1, .cls-2 {
        stroke-width: 0px;
      }

      .cls-2 {
        fill: #fff;
      }
    </style>
  </defs>
  <g id="Warstwa_1-2" data-name="Warstwa 1">
    <g>
      <g>
        <path class="cls-2" d="M305.58,23.44c-6.41,0-11.63-5.05-11.63-11.27s5.22-11.27,11.63-11.27,11.63,5.05,11.63,11.27-5.22,11.27-11.63,11.27ZM305.58,5.91c-3.65,0-6.63,2.81-6.63,6.27s2.97,6.27,6.63,6.27,6.63-2.81,6.63-6.27-2.97-6.27-6.63-6.27Z"/>
        <path class="cls-2" d="M323.83,32.2c-.62,0-1.25-.23-1.73-.7l-11.8-11.34c-1-.96-1.03-2.54-.07-3.54.96-1,2.54-1.03,3.53-.07l11.8,11.34c1,.96,1.03,2.54.07,3.54-.49.51-1.15.77-1.8.77Z"/>
        <path class="cls-2" d="M312.03,43.54c-.66,0-1.31-.26-1.8-.77-.96-1-.92-2.58.07-3.54l36.14-34.71c.99-.96,2.58-.92,3.53.07.96,1,.92,2.58-.07,3.54l-36.14,34.71c-.48.47-1.11.7-1.73.7Z"/>
        <path class="cls-2" d="M305.58,58.5c-6.41,0-11.63-5.05-11.63-11.27s5.22-11.27,11.63-11.27,11.63,5.05,11.63,11.27-5.22,11.27-11.63,11.27ZM305.58,40.97c-3.65,0-6.63,2.81-6.63,6.27s2.97,6.27,6.63,6.27,6.63-2.81,6.63-6.27-2.97-6.27-6.63-6.27Z"/>
        <path class="cls-2" d="M348.17,55.58c-.62,0-1.25-.23-1.73-.7l-15.82-15.19c-1-.96-1.03-2.54-.07-3.54.96-1,2.54-1.03,3.53-.07l15.82,15.19c1,.96,1.03,2.54.07,3.54-.49.51-1.15.77-1.8.77Z"/>
      </g>
      <path class="cls-1" d="M14.11,47.3v-15.81c-1.81-.77-3.63-1.53-5.51-2.08-2.79-.81-5.7-1.15-8.6-1.03v29.78h22.7v-10.86h-8.58Z"/>
      <path class="cls-1" d="M26.12,34.93v23.23h14.11v-25.78c-4.7,1.45-9.38,2.72-14.11,2.55Z"/>
      <path class="cls-1" d="M45.9,30.63v27.53h11.8v-24.67l7.34,24.67h12.37v-24.72c-6.19-1.66-12.21-4.54-18.62-4.85-4.35-.21-8.64.78-12.89,2.04Z"/>
      <path class="cls-1" d="M83.07,34.5v23.66h14.11v-23.27l5.72,23.27h14.58l-8.74-29.35c-7.95,1.43-15.57,5.85-23.73,5.79-.65,0-1.3-.05-1.95-.1Z"/>
      <path class="cls-2" d="M118.28,38.89c0,5.32.44,9.3,1.31,11.95.87,2.65,2.65,4.72,5.33,6.22s6.09,2.25,10.23,2.25,7.32-.88,10.04-2.65c2.72-1.77,4.47-3.83,5.26-6.18.79-2.35,1.19-6.33,1.19-11.95v-2.12h-14.11v6.82c0,2.98-.16,4.87-.49,5.68-.32.81-1.01,1.21-2.06,1.21s-1.8-.4-2.11-1.21c-.31-.8-.47-2.53-.47-5.16v-10.88c-4.71-.98-9.35-3.01-14.11-3.96v9.99Z"/>
      <path class="cls-2" d="M156.7,58.16h14.11v-24.96c-4.69-1.13-9.38-2.71-14.11-3.06v28.02Z"/>
      <path class="cls-2" d="M192.9,34.3c.16,1.57.33,3.07.49,4.49h-4.86c.09-1.19.21-2.54.37-4.07-4.15.3-8.34.15-12.46-.43l-3.17,23.88h14.59l.85-9.76h5.05l.76,9.76h14.42l-3.98-26.77c-1.76.51-3.51,1.06-5.25,1.52-2.24.6-4.52,1.06-6.82,1.38Z"/>
      <path class="cls-2" d="M210.94,29.93v8.95c0,5.32.44,9.3,1.31,11.95s2.65,4.72,5.33,6.22,6.09,2.25,10.23,2.25,7.33-.88,10.04-2.65c2.72-1.77,4.47-3.83,5.26-6.18.79-2.35,1.19-6.33,1.19-11.95v-2.12h-14.11v6.82c0,2.98-.16,4.87-.49,5.68s-1.01,1.21-2.06,1.21-1.8-.4-2.11-1.21c-.31-.8-.47-2.53-.47-5.16v-11.28c-1.87-.79-3.67-1.75-5.61-2.31-2.8-.8-5.64-.72-8.5-.22Z"/>
      <path class="cls-1" d="M0,1.14v24.5c2.9-.12,5.81.21,8.6,1.03,1.88.55,3.7,1.31,5.51,2.08V1.14H0Z"/>
      <path class="cls-1" d="M26.12,1.14v31.04c4.73.18,9.42-1.09,14.11-2.55V1.14h-14.11Z"/>
      <path class="cls-1" d="M65.61,1.14v24.44L57.7,1.14h-11.8v26.74c4.25-1.26,8.53-2.25,12.89-2.04,6.41.31,12.43,3.19,18.62,4.85V1.14h-11.8Z"/>
      <path class="cls-1" d="M116.72,1.14h-13.24l-6.29,21.09V1.14h-14.11v30.61c.65.06,1.29.1,1.95.1,8.16.06,15.77-4.36,23.73-5.79l-.13-.42L116.72,1.14Z"/>
      <path class="cls-2" d="M132.86,10.43c.31-.83,1.05-1.24,2.21-1.24,1.03,0,1.69.34,1.99,1.02.3.68.45,2.39.45,5.14v9.43h14.11v-5.16c0-5.07-.42-8.8-1.27-11.2-.85-2.4-2.63-4.4-5.33-6.01-2.7-1.61-6.13-2.41-10.29-2.41-3.06,0-5.77.52-8.13,1.56-2.36,1.04-4.2,2.46-5.53,4.27-1.33,1.81-2.13,3.69-2.4,5.65-.27,1.96-.4,4.89-.4,8.8v5.87c4.77.96,9.4,2.98,14.11,3.96v-14.33c0-2.75.16-4.54.47-5.36Z"/>
      <path class="cls-2" d="M156.7,1.14v26.25c4.73.36,9.42,1.93,14.11,3.06V1.14h-14.11Z"/>
      <path class="cls-2" d="M180.47,1.14l-4.03,30.4c4.12.59,8.31.73,12.46.43.48-4.66,1.26-10.9,2.34-18.73.55,6.96,1.1,13.06,1.66,18.31,2.3-.32,4.58-.78,6.82-1.38,1.73-.46,3.49-1,5.25-1.52l-4.09-27.51h-20.4Z"/>
      <path class="cls-2" d="M225.52,10.43c.31-.83,1.05-1.24,2.21-1.24,1.03,0,1.69.34,1.99,1.02.3.68.45,2.39.45,5.14v9.43h14.11v-5.16c0-5.07-.42-8.8-1.27-11.2-.85-2.4-2.63-4.4-5.33-6.01-2.7-1.61-6.14-2.41-10.29-2.41-3.06,0-5.77.52-8.13,1.56-2.36,1.04-4.2,2.46-5.53,4.27-1.33,1.81-2.13,3.69-2.4,5.65-.27,1.96-.4,4.89-.4,8.8v6.9c2.86-.49,5.7-.58,8.5.22,1.95.56,3.75,1.52,5.61,2.31v-13.93c0-2.75.16-4.54.47-5.36Z"/>
      <path class="cls-2" d="M267.7,1.14v19.41h-4.22V1.14h-14.11v26.24c3.3-.91,6.61-1.61,9.95-1.54,7.76.15,15.04,4.42,22.5,6.24V1.14h-14.11Z"/>
      <path class="cls-2" d="M249.36,30.13v28.03h14.11v-22.8h4.22v22.8h14.11v-23.34c-7.46-1.82-14.74-6.08-22.5-6.24-3.34-.07-6.66.63-9.95,1.54Z"/>
    </g>
  </g>
</svg>